<?xml version="1.0" encoding="iso-8859-1"?>
<!-- Generator: Adobe Illustrator 16.0.0, SVG Export Plug-In . SVG Version: 6.00 Build 0)  -->
<!DOCTYPE svg PUBLIC "-//W3C//DTD SVG 1.1//EN" "http://www.w3.org/Graphics/SVG/1.1/DTD/svg11.dtd">
<svg version="1.1" id="Capa_1" xmlns="http://www.w3.org/2000/svg" xmlns:xlink="http://www.w3.org/1999/xlink" x="0px" y="0px"
	 width="299.001px" height="299.001px" viewBox="0 0 299.001 299.001" style="enable-background:new 0 0 299.001 299.001;"
	 xml:space="preserve">
<g>
	<g>
		<path d="M279.068,129.646c3.093-14.127,6.291-28.735,6.226-41.167c-0.081-15.292-7.325-37.108-18.457-55.58
			C254.238,11.993,239.642,0.002,226.794,0c-28.245-0.004-58.367,57.536-58.501,88.483c-0.067,15.778,3.497,31.146,6.642,44.704
			c2.39,10.291,4.645,20.011,4.696,27.681c0.142,19.771-2.8,78.84-2.829,79.434c-0.004,0.066-0.006,0.136-0.006,0.199
			c0,16.115,4.463,30.678,12.564,41.006c8.978,11.445,21.922,17.494,37.433,17.494s28.455-6.049,37.433-17.494
			c8.104-10.328,12.564-24.891,12.564-41.006c0-0.063-0.002-0.133-0.006-0.199c-0.029-0.594-2.97-59.659-2.829-79.434
			C274.013,152.732,276.468,141.519,279.068,129.646z M271.252,127.935c-2.689,12.293-5.233,23.905-5.297,32.875
			c-0.14,19.777,2.655,76.183,2.835,79.789c-0.031,23.271-11.043,50.4-41.997,50.4s-41.966-27.129-41.997-50.4
			c0.18-3.606,2.976-60.012,2.835-79.789c-0.061-8.557-2.413-18.696-4.903-29.432c-3.046-13.132-6.497-28.016-6.435-42.861
			c0.129-29.875,28.852-80.52,50.499-80.517c21.615,0.003,50.344,50.65,50.501,80.521
			C277.354,100.065,274.252,114.233,271.252,127.935z"/>
		<path d="M235.96,194.342h-17.334c-2.209,0-4,1.791-4,4v44c0,2.209,1.791,4,4,4h17.334c2.209,0,4-1.791,4-4v-44
			C239.96,196.133,238.169,194.342,235.96,194.342z M231.96,238.342h-9.334v-36h9.334V238.342L231.96,238.342z"/>
		<path d="M243.71,164.611v-4.945h5.25c2.209,0,4-1.791,4-4s-1.791-4-4-4h-5.25V139h5.25c2.209,0,4-1.791,4-4s-1.791-4-4-4h-5.25
			v-12.667h5.25c2.209,0,4-1.791,4-4s-1.791-4-4-4h-5.25V97.666h5.25c2.209,0,4-1.791,4-4s-1.791-4-4-4h-5.25V75
			c0-2.209-1.791-4-4-4h-24.834c-2.209,0-4,1.791-4,4v14.667h-5.25c-2.209,0-4,1.791-4,4s1.791,4,4,4h5.25v12.667h-5.25
			c-2.209,0-4,1.791-4,4s1.791,4,4,4h5.25V131h-5.25c-2.209,0-4,1.791-4,4s1.791,4,4,4h5.25v12.667h-5.25c-2.209,0-4,1.791-4,4
			s1.791,4,4,4h5.25v4.944c-7.448,0.869-13.25,7.209-13.25,14.89v72.832c0,8.271,6.729,15,15,15h29.334c8.271,0,15-6.729,15-15
			V179.5C256.96,171.82,251.159,165.48,243.71,164.611z M218.876,79h16.834v10.667h-16.834V79L218.876,79z M218.876,97.667h16.834
			v12.667h-16.834V97.667L218.876,97.667z M218.876,118.333h16.834V131h-16.834V118.333L218.876,118.333z M218.876,139h16.834
			v12.667h-16.834V139L218.876,139z M218.876,159.666h16.834v4.834h-16.834V159.666L218.876,159.666z M248.96,252.332
			c0,3.859-3.141,7-7,7h-29.334c-3.859,0-7-3.141-7-7V179.5c0-3.859,3.141-7,7-7h29.334c3.859,0,7,3.141,7,7V252.332L248.96,252.332
			z"/>
		<path d="M72.207,0C59.358,0.002,44.764,11.993,32.165,32.899c-11.132,18.472-18.376,40.288-18.457,55.58
			c-0.065,12.432,3.133,27.04,6.226,41.167c2.6,11.873,5.055,23.086,5.112,31.222c0.14,19.772-2.8,78.84-2.829,79.434
			c-0.004,0.066-0.006,0.136-0.006,0.199c0,16.115,4.462,30.678,12.564,41.006c8.978,11.445,21.922,17.494,37.433,17.494
			c15.511,0,28.455-6.049,37.433-17.494c8.102-10.328,12.564-24.891,12.564-41.006c0-0.063-0.002-0.133-0.006-0.199
			c-0.029-0.594-2.97-59.661-2.829-79.434c0.053-7.671,2.308-17.39,4.696-27.681c3.145-13.558,6.709-28.926,6.642-44.704
			C130.574,57.536,100.452-0.004,72.207,0z M116.272,131.378c-2.49,10.735-4.843,20.875-4.903,29.433
			c-0.14,19.776,2.655,76.182,2.835,79.789c-0.031,23.271-11.043,50.399-41.997,50.399S30.242,263.87,30.21,240.6
			c0.18-3.607,2.975-60.013,2.835-79.789c-0.063-8.972-2.606-20.583-5.297-32.876c-3-13.701-6.103-27.869-6.041-39.413
			C21.864,58.65,50.593,8.003,72.208,8c21.647-0.003,50.37,50.642,50.499,80.517C122.771,103.362,119.318,118.247,116.272,131.378z"
			/>
		<path d="M80.375,194.342H63.041c-2.209,0-4,1.791-4,4v44c0,2.209,1.791,4,4,4h17.334c2.209,0,4-1.791,4-4v-44
			C84.375,196.133,82.583,194.342,80.375,194.342z M76.375,238.342h-9.334v-36h9.334V238.342z"/>
		<path d="M88.125,75c0-2.209-1.791-4-4-4H59.291c-2.209,0-4,1.791-4,4v14.666h-5.25c-2.209,0-4,1.791-4,4s1.791,4,4,4h5.25v12.667
			h-5.25c-2.209,0-4,1.791-4,4s1.791,4,4,4h5.25V131h-5.25c-2.209,0-4,1.791-4,4s1.791,4,4,4h5.25v12.667h-5.25
			c-2.209,0-4,1.791-4,4s1.791,4,4,4h5.25v4.944c-7.448,0.869-13.25,7.209-13.25,14.89v72.832c0,8.271,6.729,15,15,15h29.334
			c8.271,0,15-6.729,15-15V179.5c0-7.68-5.802-14.02-13.25-14.889v-4.945h5.25c2.209,0,4-1.791,4-4s-1.791-4-4-4h-5.25V139h5.25
			c2.209,0,4-1.791,4-4s-1.791-4-4-4h-5.25v-12.666h5.25c2.209,0,4-1.791,4-4s-1.791-4-4-4h-5.25V97.667h5.25c2.209,0,4-1.791,4-4
			s-1.791-4-4-4h-5.25V75z M63.291,79h16.834v10.667H63.291V79z M63.291,97.667h16.834v12.667H63.291V97.667z M63.291,118.333
			h16.834V131H63.291V118.333z M63.291,139h16.834v12.667H63.291V139z M63.291,159.666h16.834v4.834H63.291V159.666z M93.375,179.5
			v72.832c0,3.859-3.141,7-7,7H57.041c-3.859,0-7-3.141-7-7V179.5c0-3.859,3.141-7,7-7h29.334
			C90.233,172.5,93.375,175.641,93.375,179.5z"/>
	</g>
</g>
<g>
</g>
<g>
</g>
<g>
</g>
<g>
</g>
<g>
</g>
<g>
</g>
<g>
</g>
<g>
</g>
<g>
</g>
<g>
</g>
<g>
</g>
<g>
</g>
<g>
</g>
<g>
</g>
<g>
</g>
</svg>
